<?xml version="1.0" encoding="UTF-8"?>
<svg width="153px" height="26px" viewBox="0 0 153 26" version="1.1" xmlns="http://www.w3.org/2000/svg" xmlns:xlink="http://www.w3.org/1999/xlink">
    <!-- Generator: Sketch 54.1 (76490) - https://sketchapp.com -->
    <title>Group</title>
    <desc>Created with Sketch.</desc>
    <g id="recome" stroke="none" stroke-width="1" fill="none" fill-rule="evenodd" opacity="0.55">
        <g id="main_page" transform="translate(-94.000000, -6.000000)">
            <g id="header" transform="translate(0.000000, -1.000000)">
                <g id="Group" transform="translate(94.000000, 0.000000)">
                    <g id="Alien-02" transform="translate(0.000000, 7.000000)" fill-rule="nonzero">
                        <ellipse id="XMLID_3_" fill="#323232" cx="11.5" cy="11" rx="2.5" ry="2"></ellipse>
                        <path d="M24.2741935,4.23348694 C25.2419355,3.2749616 25.2419355,1.71735791 24.2741935,0.718894009 C23.3064516,-0.239631336 21.733871,-0.239631336 20.7258065,0.718894009 C20.0806452,1.35791091 19.8790323,2.2764977 20.0806452,3.11520737 L18.7903226,4.39324117 C16.9758065,3.19508449 14.8387097,2.47619048 12.5,2.47619048 C10.1612903,2.47619048 7.98387097,3.19508449 6.20967742,4.39324117 L4.91935484,3.11520737 C5.12096774,2.2764977 4.91935484,1.39784946 4.27419355,0.718894009 C3.30645161,-0.239631336 1.73387097,-0.239631336 0.725806452,0.718894009 C-0.241935484,1.67741935 -0.241935484,3.23502304 0.725806452,4.23348694 C1.37096774,4.87250384 2.2983871,5.07219662 3.14516129,4.87250384 L4.31451613,6.03072197 C2.41935484,8.02764977 1.29032258,10.703533 1.29032258,13.6190476 L1.29032258,22.2857143 C1.29032258,24.3225806 2.98387097,26 5.04032258,26 C7.09677419,26 8.79032258,24.3225806 8.79032258,22.2857143 C8.79032258,24.3225806 10.483871,26 12.5403226,26 C14.5967742,26 16.2903226,24.3225806 16.2903226,22.2857143 C16.2903226,24.3225806 17.983871,26 20.0403226,26 C22.0967742,26 23.7903226,24.3225806 23.7903226,22.2857143 L23.7903226,13.5791091 C23.7903226,10.6236559 22.6209677,7.98771121 20.766129,5.99078341 L21.9354839,4.83256528 C22.7016129,5.07219662 23.6290323,4.87250384 24.2741935,4.23348694 Z M12.5403226,17.2933948 C9.7983871,17.2933948 7.54032258,15.0967742 7.54032258,12.3410138 C7.54032258,9.58525346 9.7983871,7.42857143 12.5403226,7.42857143 C15.2822581,7.42857143 17.5403226,9.62519201 17.5403226,12.3809524 C17.5403226,15.1367127 15.2822581,17.2933948 12.5403226,17.2933948 Z" id="XMLID_6_" fill="#0D0D0D"></path>
                    </g>
                    <text id="RECOME" font-family="Arial-Black, Arial Black" font-size="27" font-weight="700" fill="#2B2B2B">
                        <tspan x="25.0124512" y="30">RECOME</tspan>
                    </text>
                </g>
            </g>
        </g>
    </g>
</svg>